# xmcd
#
# Track frame offsets: 
#        150
#        16157
#        39312
#        54844
#        88134
#        105840
#        127362
#        147256
#        168483
#        189750
#        205883
#        228273
#        247021
#        270902
#        296442
#        318009
#        332944
#
# Disc length: 4784 seconds
#
# Revision: 0
# Processed by: cddbd v1.5.2PL0 Copyright (c) Steve Scherf et al.
# Submitted via: ExactAudioCopy v1.3
#
DISCID=e212ae11
DTITLE=Various Artist - Blues - Golden Age '60s -'70s  vol.05  CD2
DYEAR=2017
DGENRE=Rock
TTITLE0=Budgie (1978) - Melt the Ice Away
TTITLE1=Pink Floyd (1975) - Have a Cigar
TTITLE2=Grand Funk Railroad (1973) - We're An American Band
TTITLE3=Led Zeppelin (1970) - Since I've Been Loving You
TTITLE4=Nazareth (1976) - Born Under The Wrong Sign
TTITLE5=Wishbone Ash (1977) - Come in From the Rain
TTITLE6=The Doors (1970) - Maggie M'Gill
TTITLE7=Free (1973) - Come Together In The Morning
TTITLE8=Rory Gallagher (1971) - Persuasion
TTITLE9=Jimi Hendrix (1970) - Belly Button Window
TTITLE10=The Allman Brothers Band (1970) - Hoochie Coochie Man
TTITLE11=Lynyrd Skynyrd (1976) - I Got the Same Old Blues
TTITLE12=Creedence Clearwater Revival (1969) - Feelin' Blue
TTITLE13=Fleetwood Mac (1969) - Just The Blues
TTITLE14=Deep Purple (1970) - Black Night 
TTITLE15=Dr. Feelgood (1978) - Down At The Doctors
TTITLE16=Bad Company (1979) - Early In The Morning
EXTD=
EXTT0=
EXTT1=
EXTT2=
EXTT3=
EXTT4=
EXTT5=
EXTT6=
EXTT7=
EXTT8=
EXTT9=
EXTT10=
EXTT11=
EXTT12=
EXTT13=
EXTT14=
EXTT15=
EXTT16=
PLAYORDER=
